<svg width="60" height="60" viewBox="0 0 60 60" fill="none" xmlns="http://www.w3.org/2000/svg">
<g clip-path="url(#clip0_97_354)">
<path fill-rule="evenodd" clip-rule="evenodd" d="M59.9963 28.4963V30.0002C59.9963 32.1262 60.008 34.2424 59.9865 36.3576C59.967 38.3645 59.9182 40.3703 59.801 42.384C59.5686 47.1867 58.4807 51.4426 54.9612 54.9621C51.4494 58.4748 47.1858 59.5705 42.383 59.803C38.2483 60.0354 34.1428 59.9983 30.0002 59.9983L28.4983 59.9992C24.8694 60.0032 21.258 60.0071 17.6174 59.803C12.8127 59.5705 8.55881 58.4817 5.03733 54.9621C1.52561 51.4494 0.429908 47.1867 0.197486 42.384C-0.00759167 38.7492 -0.00173229 35.1321 0.00217396 31.5012V30.0002C0.00217396 25.8645 -0.0349354 21.76 0.197486 17.6164C0.429908 12.8137 1.5178 8.55784 5.03733 5.03831C8.551 1.52561 12.8127 0.429908 17.6174 0.197486C21.7522 -0.0349354 25.8576 0.00217396 30.0002 0.00217396L31.5002 0.0011974C35.1311 -0.00270885 38.7424 -0.0066151 42.383 0.197486C47.1858 0.429908 51.4416 1.51878 54.9612 5.03831C58.4729 8.551 59.5686 12.8137 59.801 17.6164C60.0061 21.2512 60.0002 24.8625 59.9963 28.4963ZM15.5119 45.0002H21.9397V24.303H15.5119V45.0002ZM15.0002 17.7229C15.0002 19.7776 16.6682 21.4797 18.7229 21.4797C20.7776 21.4797 22.4455 19.7776 22.4455 17.7229C22.4455 16.7356 22.053 15.7883 21.3537 15.0901C20.6565 14.3928 19.7092 14.0002 18.7229 14.0002C17.7346 14.0002 16.7893 14.3928 16.0901 15.0901C15.3928 15.7883 15.0002 16.7356 15.0002 17.7229ZM39.5823 45.0002H45.9944L46.0002 33.6311C46.0002 28.0676 44.8049 23.7844 38.299 23.7844C35.174 23.7844 33.0764 25.5002 32.219 27.1262H32.1291V24.303H25.9651V45.0002H32.3869V34.7522C32.3869 32.053 32.8987 29.4446 36.2405 29.4446C39.5334 29.4446 39.5823 32.5237 39.5823 34.925V45.0002Z" fill="black"/>
</g>
<defs>
<clipPath id="clip0_97_354">
<rect width="60" height="60" fill="white"/>
</clipPath>
</defs>
</svg>
